<svg width="32" height="32" viewBox="0 0 32 32" fill="none" xmlns="http://www.w3.org/2000/svg">
<rect x="0.5" y="0.5" width="31" height="31" rx="15.5" stroke="#C6C6CD"/>
<path d="M16 24.3334C14.8472 24.3334 13.7638 24.1147 12.75 23.6772C11.7361 23.2397 10.8541 22.6459 10.1041 21.8959C9.35413 21.1459 8.76038 20.264 8.32288 19.2501C7.88538 18.2362 7.66663 17.1529 7.66663 16.0001C7.66663 14.8473 7.88538 13.764 8.32288 12.7501C8.76038 11.7362 9.35413 10.8542 10.1041 10.1042C10.8541 9.35425 11.7361 8.7605 12.75 8.323C13.7638 7.8855 14.8472 7.66675 16 7.66675C17.1527 7.66675 18.2361 7.8855 19.25 8.323C20.2638 8.7605 21.1458 9.35425 21.8958 10.1042C22.6458 10.8542 23.2395 11.7362 23.677 12.7501C24.1145 13.764 24.3333 14.8473 24.3333 16.0001C24.3333 17.1529 24.1145 18.2362 23.677 19.2501C23.2395 20.264 22.6458 21.1459 21.8958 21.8959C21.1458 22.6459 20.2638 23.2397 19.25 23.6772C18.2361 24.1147 17.1527 24.3334 16 24.3334ZM15.1666 22.6251V21.0001C14.7083 21.0001 14.3159 20.8369 13.9895 20.5105C13.6632 20.1841 13.5 19.7917 13.5 19.3334V18.5001L9.49996 14.5001C9.45829 14.7501 9.4201 15.0001 9.38538 15.2501C9.35065 15.5001 9.33329 15.7501 9.33329 16.0001C9.33329 17.6806 9.88538 19.1529 10.9895 20.4167C12.0937 21.6806 13.4861 22.4167 15.1666 22.6251ZM20.9166 20.5001C21.4861 19.8751 21.9201 19.1772 22.2187 18.4063C22.5173 17.6355 22.6666 16.8334 22.6666 16.0001C22.6666 14.639 22.2882 13.3959 21.5312 12.2709C20.7743 11.1459 19.7638 10.3334 18.5 9.83341V10.1667C18.5 10.6251 18.3368 11.0174 18.0104 11.3438C17.684 11.6702 17.2916 11.8334 16.8333 11.8334H15.1666V13.5001C15.1666 13.7362 15.0868 13.9341 14.927 14.0938C14.7673 14.2536 14.5694 14.3334 14.3333 14.3334H12.6666V16.0001H17.6666C17.9027 16.0001 18.1007 16.0799 18.2604 16.2397C18.4201 16.3994 18.5 16.5973 18.5 16.8334V19.3334H19.3333C19.6944 19.3334 20.0208 19.4411 20.3125 19.6563C20.6041 19.8716 20.8055 20.1529 20.9166 20.5001Z" fill="#1B1B1D"/>
</svg>
